<mxfile host="app.diagrams.net" modified="2022-11-07T10:50:19.159Z" agent="5.0 (Macintosh; Intel Mac OS X 10_15_7) AppleWebKit/537.36 (KHTML, like Gecko) Chrome/105.0.0.0 Safari/537.36" etag="u8nRHRzsUWX6_ZKZMh0k" version="20.5.3" type="github">
  <diagram id="oFoja3Uq0o-UijYm_VAg" name="第 1 页">
    <mxGraphModel dx="2066" dy="1072" grid="0" gridSize="10" guides="1" tooltips="1" connect="1" arrows="1" fold="1" page="1" pageScale="1" pageWidth="827" pageHeight="1169" math="0" shadow="0">
      <root>
        <mxCell id="0" />
        <mxCell id="1" parent="0" />
        <mxCell id="MAFU2enh-p5RpcMAyGeA-19" value="" style="rounded=0;whiteSpace=wrap;html=1;shadow=0;glass=0;sketch=1;fontSize=14;fontColor=#00FF00;fillColor=#D5E8D4;" vertex="1" parent="1">
          <mxGeometry x="510" y="510" width="190" height="120" as="geometry" />
        </mxCell>
        <mxCell id="MAFU2enh-p5RpcMAyGeA-13" value="" style="rounded=0;whiteSpace=wrap;html=1;fontSize=14;fontColor=#FF0080;fillColor=#D5E8D4;sketch=1;glass=0;shadow=0;" vertex="1" parent="1">
          <mxGeometry x="40" y="160" width="724" height="577" as="geometry" />
        </mxCell>
        <mxCell id="MAFU2enh-p5RpcMAyGeA-10" value="" style="rounded=0;whiteSpace=wrap;html=1;fontSize=14;fillColor=#dae8fc;strokeColor=#6c8ebf;sketch=1;" vertex="1" parent="1">
          <mxGeometry x="350" y="330" width="380" height="380" as="geometry" />
        </mxCell>
        <mxCell id="MAFU2enh-p5RpcMAyGeA-3" value="" style="rounded=0;orthogonalLoop=1;jettySize=auto;html=1;fontSize=14;fontColor=#FFFFFF;" edge="1" parent="1" source="MAFU2enh-p5RpcMAyGeA-1" target="MAFU2enh-p5RpcMAyGeA-2">
          <mxGeometry relative="1" as="geometry" />
        </mxCell>
        <mxCell id="MAFU2enh-p5RpcMAyGeA-7" value="" style="edgeStyle=none;rounded=0;orthogonalLoop=1;jettySize=auto;html=1;fontSize=14;fontColor=#FFFFFF;" edge="1" parent="1" source="MAFU2enh-p5RpcMAyGeA-1" target="MAFU2enh-p5RpcMAyGeA-6">
          <mxGeometry relative="1" as="geometry" />
        </mxCell>
        <mxCell id="MAFU2enh-p5RpcMAyGeA-1" value="&lt;font style=&quot;font-size: 14px;&quot; color=&quot;#ffffff&quot;&gt;1&lt;/font&gt;" style="ellipse;whiteSpace=wrap;html=1;aspect=fixed;fillColor=#007FFF;strokeColor=#6c8ebf;" vertex="1" parent="1">
          <mxGeometry x="220" y="180" width="50" height="50" as="geometry" />
        </mxCell>
        <mxCell id="MAFU2enh-p5RpcMAyGeA-5" value="" style="edgeStyle=none;rounded=0;orthogonalLoop=1;jettySize=auto;html=1;fontSize=14;fontColor=#FFFFFF;" edge="1" parent="1" source="MAFU2enh-p5RpcMAyGeA-2" target="MAFU2enh-p5RpcMAyGeA-4">
          <mxGeometry relative="1" as="geometry" />
        </mxCell>
        <mxCell id="MAFU2enh-p5RpcMAyGeA-2" value="&lt;font style=&quot;font-size: 14px;&quot; color=&quot;#ffffff&quot;&gt;3&lt;/font&gt;" style="ellipse;whiteSpace=wrap;html=1;aspect=fixed;fillColor=#007FFF;strokeColor=#6c8ebf;" vertex="1" parent="1">
          <mxGeometry x="140" y="270" width="50" height="50" as="geometry" />
        </mxCell>
        <mxCell id="MAFU2enh-p5RpcMAyGeA-4" value="&lt;font style=&quot;font-size: 14px;&quot; color=&quot;#ffffff&quot;&gt;4&lt;/font&gt;" style="ellipse;whiteSpace=wrap;html=1;aspect=fixed;fillColor=#007FFF;strokeColor=#6c8ebf;" vertex="1" parent="1">
          <mxGeometry x="60" y="360" width="50" height="50" as="geometry" />
        </mxCell>
        <mxCell id="MAFU2enh-p5RpcMAyGeA-9" value="" style="edgeStyle=none;rounded=0;orthogonalLoop=1;jettySize=auto;html=1;fontSize=14;fontColor=#FFFFFF;" edge="1" parent="1" source="MAFU2enh-p5RpcMAyGeA-6" target="MAFU2enh-p5RpcMAyGeA-8">
          <mxGeometry relative="1" as="geometry" />
        </mxCell>
        <mxCell id="MAFU2enh-p5RpcMAyGeA-6" value="&lt;font style=&quot;font-size: 14px;&quot; color=&quot;#ffffff&quot;&gt;5&lt;/font&gt;" style="ellipse;whiteSpace=wrap;html=1;aspect=fixed;fillColor=#007FFF;strokeColor=#6c8ebf;" vertex="1" parent="1">
          <mxGeometry x="300" y="270" width="50" height="50" as="geometry" />
        </mxCell>
        <mxCell id="MAFU2enh-p5RpcMAyGeA-12" value="" style="edgeStyle=none;rounded=0;orthogonalLoop=1;jettySize=auto;html=1;fontSize=14;fontColor=#FF0080;" edge="1" parent="1" source="MAFU2enh-p5RpcMAyGeA-8" target="MAFU2enh-p5RpcMAyGeA-11">
          <mxGeometry relative="1" as="geometry" />
        </mxCell>
        <mxCell id="MAFU2enh-p5RpcMAyGeA-8" value="&lt;span style=&quot;font-size: 14px;&quot;&gt;&lt;font color=&quot;#ffffff&quot;&gt;6,&amp;nbsp;&lt;/font&gt;&lt;font color=&quot;#ff0080&quot;&gt;1&lt;/font&gt;&lt;/span&gt;" style="ellipse;whiteSpace=wrap;html=1;aspect=fixed;fillColor=#007FFF;strokeColor=#6c8ebf;" vertex="1" parent="1">
          <mxGeometry x="380" y="360" width="50" height="50" as="geometry" />
        </mxCell>
        <mxCell id="MAFU2enh-p5RpcMAyGeA-18" value="" style="edgeStyle=none;rounded=0;orthogonalLoop=1;jettySize=auto;html=1;fontSize=14;fontColor=#FF0080;" edge="1" parent="1" source="MAFU2enh-p5RpcMAyGeA-11" target="MAFU2enh-p5RpcMAyGeA-17">
          <mxGeometry relative="1" as="geometry" />
        </mxCell>
        <mxCell id="MAFU2enh-p5RpcMAyGeA-11" value="&lt;span style=&quot;font-size: 14px;&quot;&gt;&lt;font color=&quot;#ffffff&quot;&gt;7,&amp;nbsp;&lt;/font&gt;&lt;font color=&quot;#ff0080&quot;&gt;2&lt;/font&gt;&lt;/span&gt;" style="ellipse;whiteSpace=wrap;html=1;aspect=fixed;fillColor=#007FFF;strokeColor=#6c8ebf;" vertex="1" parent="1">
          <mxGeometry x="460" y="440" width="50" height="50" as="geometry" />
        </mxCell>
        <mxCell id="MAFU2enh-p5RpcMAyGeA-15" value="init_pid_ns&lt;br&gt;level=0" style="text;html=1;strokeColor=none;fillColor=none;align=center;verticalAlign=middle;whiteSpace=wrap;rounded=0;shadow=0;glass=0;sketch=1;fontSize=14;fontColor=#FF0080;" vertex="1" parent="1">
          <mxGeometry x="50" y="170" width="100" height="40" as="geometry" />
        </mxCell>
        <mxCell id="MAFU2enh-p5RpcMAyGeA-16" value="子namespace&lt;br&gt;level=1" style="text;html=1;strokeColor=none;fillColor=none;align=center;verticalAlign=middle;whiteSpace=wrap;rounded=0;shadow=0;glass=0;sketch=1;fontSize=14;fontColor=#FF0080;" vertex="1" parent="1">
          <mxGeometry x="450" y="340" width="100" height="30" as="geometry" />
        </mxCell>
        <mxCell id="MAFU2enh-p5RpcMAyGeA-17" value="&lt;span style=&quot;font-size: 14px;&quot;&gt;&lt;font color=&quot;#ffffff&quot;&gt;8, &lt;/font&gt;&lt;font color=&quot;#ff0080&quot;&gt;3, &lt;/font&gt;&lt;font color=&quot;#00ff00&quot;&gt;1&lt;/font&gt;&lt;/span&gt;" style="ellipse;whiteSpace=wrap;html=1;aspect=fixed;fillColor=#007FFF;strokeColor=#6c8ebf;" vertex="1" parent="1">
          <mxGeometry x="550" y="540" width="50" height="50" as="geometry" />
        </mxCell>
        <mxCell id="MAFU2enh-p5RpcMAyGeA-20" value="子namespace&lt;br&gt;level=2" style="text;html=1;strokeColor=none;fillColor=none;align=center;verticalAlign=middle;whiteSpace=wrap;rounded=0;shadow=0;glass=0;sketch=1;fontSize=14;fontColor=#FF0080;" vertex="1" parent="1">
          <mxGeometry x="590" y="520" width="100" height="30" as="geometry" />
        </mxCell>
      </root>
    </mxGraphModel>
  </diagram>
</mxfile>
